<svg width="16" height="16" viewBox="0 0 16 16" fill="none" xmlns="http://www.w3.org/2000/svg">
<path fill-rule="evenodd" clip-rule="evenodd" d="M0 8C0 3.58093 3.58093 0 8 0C12.419 0 16 3.58093 16 8C16 12.4191 12.4191 16 8 16C3.58093 16 0 12.4191 0 8ZM8.57141 7.42859H11.238C11.5618 7.42859 11.8094 7.67621 11.8094 8C11.8094 8.32379 11.5619 8.57141 11.238 8.57141H8.57141V11.238C8.57141 11.5618 8.32379 11.8094 8 11.8094C7.67621 11.8094 7.42859 11.5619 7.42859 11.238V8.57141H4.7619C4.43811 8.57141 4.19049 8.32379 4.19049 8C4.19049 7.67621 4.43805 7.42859 4.7619 7.42859H7.42859V4.7619C7.42859 4.43811 7.67615 4.19049 8 4.19049C8.32379 4.19049 8.57141 4.43805 8.57141 4.7619V7.42859Z" fill="#48C15F"/>
</svg>
