<svg width="14" height="14" viewBox="0 0 14 14" fill="none" xmlns="http://www.w3.org/2000/svg">
<path fill-rule="evenodd" clip-rule="evenodd" d="M5.15289 1.10818H8.4035L8.40363 1.97632H5.15302L5.15289 1.10818ZM11.6728 1.97632H9.51184L9.51172 0.923462C9.51172 0.406342 9.10535 0 8.58826 0H4.9682C4.45105 0 4.04474 0.406342 4.04474 0.923462L4.0448 1.97632H1.84698H0.554077C0.240051 1.97632 0 2.21643 0 2.5304C0 2.84436 0.240112 3.08447 0.554077 3.08447H1.34827L2.27173 13.5013C2.29022 13.7784 2.53033 14 2.82581 14H10.7493C11.0448 14 11.2849 13.7784 11.3033 13.5013L12.2268 3.0845H13.0395C13.3535 3.0845 13.5936 2.84439 13.5936 2.53043C13.5936 2.21646 13.3166 1.97632 13.0026 1.97632H11.6912H11.6728ZM4.87622 11.8205C5.20868 11.802 5.4303 11.5435 5.4303 11.2479L5.19019 4.69125C5.17175 4.37726 4.93164 4.13718 4.61768 4.15564C4.30365 4.17407 4.08203 4.43268 4.08203 4.72818L4.3222 11.2849C4.34064 11.5804 4.58075 11.8205 4.87622 11.8205ZM8.367 4.69125C8.3855 4.37726 8.62561 4.13718 8.93958 4.15564C9.2536 4.17407 9.49371 4.43268 9.47516 4.72818L9.23505 11.2849C9.21661 11.5804 8.9765 11.8205 8.68097 11.8205H8.66254C8.34851 11.802 8.10846 11.5619 8.12689 11.2479L8.367 4.69125ZM7.33246 4.70956V11.2663C7.33246 11.5803 7.09235 11.8203 6.77838 11.8203C6.46442 11.8203 6.2243 11.5802 6.2243 11.2662V4.70956C6.2243 4.3956 6.46442 4.15549 6.77838 4.15549C7.09235 4.15549 7.33246 4.39557 7.33246 4.70956Z" fill="#F35B5B"/>
</svg>
