<svg width="9" height="14" viewBox="0 0 9 14" fill="none" xmlns="http://www.w3.org/2000/svg">
<path d="M8.59034 3.49001C8.59034 2.61907 7.88218 1.91049 7.01083 1.91049C6.13947 1.91049 5.43172 2.61907 5.43172 3.49001C5.43172 3.90217 5.59409 4.27477 5.85346 4.5562C5.65612 5.39051 5.17111 5.55246 4.11865 5.81724C3.58618 5.95129 2.97252 6.10866 2.41216 6.44213V2.91549C2.85845 2.63614 3.15862 2.14363 3.15862 1.57952C3.15862 0.708576 2.45004 0 1.57993 0C0.708576 0 0 0.708576 0 1.57952C0 2.14405 0.300583 2.63655 0.747294 2.9159V11.0841C0.300583 11.3634 0 11.856 0 12.4205C0 13.2914 0.708576 14 1.57993 14C2.45087 14 3.15903 13.2914 3.15903 12.4205C3.15903 11.8564 2.85845 11.3634 2.41257 11.0845V9.48335C2.61907 7.91465 3.37885 7.72148 4.5254 7.43256C5.57744 7.16736 7.00458 6.80267 7.45962 4.99625C8.11157 4.80225 8.59034 4.20441 8.59034 3.49001ZM1.57993 0.833472C1.99126 0.833472 2.32639 1.16861 2.32639 1.58035C2.32639 1.99209 1.99084 2.32681 1.57993 2.32681C1.16819 2.32681 0.832639 1.99167 0.832639 1.58035C0.833056 1.16819 1.16778 0.833472 1.57993 0.833472ZM1.57993 13.1669C1.16819 13.1669 0.832639 12.831 0.832639 12.4201C0.832639 12.0083 1.16819 11.6736 1.57993 11.6736C1.99126 11.6736 2.32639 12.0092 2.32639 12.4201C2.32639 12.8326 1.99126 13.1669 1.57993 13.1669ZM7.01083 4.23689C6.59908 4.23689 6.26436 3.90175 6.26436 3.49042C6.26436 3.07868 6.59992 2.74355 7.01083 2.74355C7.42215 2.74355 7.7577 3.07868 7.7577 3.49042C7.7577 3.90216 7.42298 4.23689 7.01083 4.23689Z" fill="#48C15F"/>
</svg>
