<svg xmlns="http://www.w3.org/2000/svg" fill="none" viewBox="0 0 125 20"><path fill="#fff" d="M10 0C4.5 0 0 4.6 0 10.3c0 4.5 2.9 8.3 6.8 9.7.5 0 .7-.2.7-.5v-1.8c-2.8.7-3.4-1.3-3.4-1.3-.4-1.2-1-1.5-1-1.5-1-.7 0-.7 0-.7 1 .1 1.5 1.1 1.5 1.1 1 1.6 2.4 1.1 3 .9 0-.7.3-1.2.6-1.4-2.2-.3-4.6-1.2-4.6-5 0-1.2.4-2.1 1-2.8 0-.3-.4-1.3.1-2.7 0 0 .9-.3 2.8 1a9.4 9.4 0 015 0c2-1.3 2.8-1 2.8-1 .5 1.4.2 2.4 0 2.7a4 4 0 011 2.7c0 4-2.3 4.8-4.5 5 .4.4.7 1 .7 2v2.8c0 .3.2.6.7.5 4-1.4 6.8-5.2 6.8-9.7C20 4.6 15.5 0 10 0z"/><path fill="#fff" d="M11 8.4H9.3V9h1.5v-.6zM5.4 8.8h-.7a.2.2 0 01-.2-.2c0-.1 0-.2.2-.2h.7v.4zM15.7 8.8H15v-.4h.7c.1 0 .2 0 .2.2 0 .1 0 .2-.2.2z"/><path fill="#fff" d="M9.6 8.9l-.1 1c0 .8-.7 1.3-1.4 1.3H6.5c-.7 0-1.3-.5-1.3-1.3L5 8.8c0-.5.3-.9.7-.9h3c.4 0 .8.5.8 1zM15.3 8.8v1.1c-.1.8-.7 1.3-1.4 1.3h-1.6c-.7 0-1.3-.5-1.4-1.3V9c-.1-.5.3-1 .8-1h2.9c.4 0 .8.4.7.9z"/><path stroke="#fff" stroke-linecap="round" stroke-linejoin="round" stroke-width=".5" d="M9 12.5h.2c.6.3 1.4.3 2 0h.2"/><path fill="#fff" d="M34 17.4c-1.9 0-3.3-.5-4.4-1.4-1-1-1.5-2.3-1.6-4a60.7 60.7 0 010-3.7c0-1.7.6-3 1.7-3.9 1-1 2.4-1.4 4.2-1.4 1.3 0 2.3.2 3.2.6a5 5 0 012 1.6c.5.6.7 1.2.7 1.8v.3l-.4.1H37l-.2-.3c-.2-.5-.5-1-1-1.3-.4-.3-1-.5-1.9-.5a3 3 0 00-2.2.8c-.5.5-.8 1.2-.8 2.3a56.2 56.2 0 000 3.5c0 1.1.3 1.9.9 2.4a3 3 0 002.2.8c1 0 1.7-.3 2.2-.8.6-.5.9-1.2.9-2.3v-.6h-2.4l-.4-.1-.1-.4v-1l.1-.4.4-.1h4.8l.3.1.2.3V12c0 1-.3 2-.8 2.9-.5.8-1.2 1.4-2 1.8-1 .5-2 .7-3.3.7zM43.6 17.2l-.4-.1-.1-.4v-13l.1-.4.4-.1h1.9l.3.1.2.4v13c0 .2 0 .3-.2.4l-.3.1h-2zM53.3 17.2l-.4-.1-.1-.4v-11H49l-.4-.1-.1-.4V3.7l.1-.4.4-.1h10.2l.4.1.1.4v1.5l-.1.4-.4.1h-3.7v11l-.1.4-.4.1h-1.8zM67.2 17.4a8 8 0 01-3-.5c-.9-.4-1.5-.9-2-1.5-.4-.5-.6-1.2-.7-1.9l.1-.3.3-.1h1.9l.3.1.3.3c.1.4.4.8.9 1.1.5.3 1.1.5 2 .5.9 0 1.6-.2 2-.5.5-.3.8-.7.8-1.3 0-.3-.2-.6-.4-.9a3 3 0 00-1-.6l-2.3-.7A8.5 8.5 0 0163 9.7c-.7-.7-1.1-1.5-1.1-2.7 0-.8.2-1.4.6-2 .5-.7 1-1.1 1.8-1.5a7 7 0 012.8-.5c1.1 0 2 .2 2.9.6.8.4 1.4.9 1.8 1.4.5.6.7 1.2.7 1.8l-.1.3H70c-.2 0-.4 0-.5-.3 0-.4-.3-.8-.8-1a3 3 0 00-1.7-.5c-.7 0-1.3.2-1.7.4-.4.3-.6.7-.6 1.3 0 .3 0 .6.3.9l1 .6 2 .6 2.8.9c.7.3 1.2.8 1.5 1.3.4.5.5 1.1.5 1.9 0 .9-.2 1.6-.7 2.3-.4.6-1.1 1-2 1.4-.8.3-1.8.5-3 .5zM79.2 17.2l-.3-.1-.2-.4v-11H75l-.3-.1-.1-.4V3.7v-.4l.4-.1h10.3l.3.1.2.4v1.5c0 .1 0 .3-.2.4l-.3.1h-3.7v11c0 .2 0 .3-.2.4l-.3.1h-1.9zM86 17.2a.4.4 0 01-.4-.4v-.2l4.9-12.9c.1-.3.4-.5.7-.5h2.2c.4 0 .6.2.7.5L99 16.6v.5l-.4.1h-1.7a.6.6 0 01-.6-.4l-1-2.4h-5.9l-.9 2.4c0 .3-.3.4-.6.4h-1.7zm4-5.1h4.6l-2.3-6.2-2.3 6.2zM101.9 17.2l-.3-.1-.2-.4v-13c0-.2 0-.3.2-.4l.3-.1h1.9l.3.1.2.4v11.1h6.3l.4.1.1.4v1.4l-.1.4-.4.1h-8.7zM114.1 17.2l-.3-.1-.2-.4v-13c0-.1 0-.3.2-.4l.3-.1h1.8l.4.1.1.4v4.7l4.5-4.8c.2-.3.4-.4.8-.4h2l.3.1.1.3V4l-5.5 6 5.8 6.6.1.3-.1.3-.3.1H122c-.3 0-.5 0-.6-.2l-.2-.2-4.8-5.2v5.1l-.1.4-.4.1h-1.8z"/></svg>