<svg xmlns="http://www.w3.org/2000/svg" fill="none" viewBox="0 0 125 20"><path fill="#333" d="M10 0a10 10 0 00-3.2 19.6c.5 0 .7-.3.7-.5v-1.7C4.7 18 4.1 16 4.1 16c-.4-1.1-1-1.4-1-1.4-1-.7 0-.7 0-.7 1 .1 1.5 1 1.5 1 1 1.6 2.4 1.2 3 1 0-.7.3-1.2.6-1.4-2.2-.3-4.6-1.1-4.6-5 0-1 .4-2 1-2.7 0-.2-.4-1.3.1-2.6 0 0 .9-.3 2.8 1a9.5 9.5 0 015 0c2-1.3 2.8-1 2.8-1 .5 1.3.2 2.4 0 2.6.7.7 1 1.6 1 2.7 0 3.9-2.3 4.7-4.5 5 .4.3.7.9.7 1.8v2.8c0 .3.2.6.7.5A10 10 0 0010 0z"/><path fill="#333" d="M11 8.2H9.3v.6h1.5v-.6zM5.4 8.6h-.7a.2.2 0 010-.4h.7v.4zM15.7 8.6H15v-.4h.7a.2.2 0 010 .4z"/><path fill="#333" d="M9.6 8.7l-.1 1c0 .7-.7 1.3-1.4 1.3H6.5c-.7 0-1.3-.6-1.3-1.3L5 8.6c0-.5.3-.8.7-.8h3c.4 0 .8.4.8.9zM15.3 8.6v1.1c-.1.7-.7 1.3-1.4 1.3h-1.6c-.7 0-1.3-.6-1.4-1.3v-1c-.1-.5.3-1 .8-1h2.9c.4 0 .8.4.7.9zM9 12a.3.3 0 10-.1.5l.2-.5zm.2.3v-.2.2zm2 0v-.2.2zm.3.2a.3.3 0 10-.2-.5l.2.5zm-2.6 0h.2l.1-.4-.1-.1-.2.5zm2.4 0h.2l-.2-.5h-.1l.1.5zm-2.2 0c.7.3 1.5.3 2.2 0l-.1-.4a3 3 0 01-2 0l-.1.4zM34 17.4c-1.9 0-3.3-.5-4.4-1.4-1-1-1.5-2.3-1.6-4a60.6 60.6 0 010-3.7c0-1.7.6-3 1.7-3.9 1-1 2.4-1.4 4.2-1.4 1.3 0 2.3.2 3.2.6a5 5 0 012 1.6c.5.6.7 1.2.7 1.8v.3l-.4.1H37l-.2-.3c-.2-.5-.5-1-1-1.3-.4-.3-1-.5-1.9-.5a3 3 0 00-2.2.8c-.5.5-.8 1.2-.8 2.3a56.1 56.1 0 000 3.5c0 1.1.3 1.9.9 2.4a3 3 0 002.2.8c1 0 1.7-.3 2.2-.8.6-.5.9-1.2.9-2.3v-.6h-2.4l-.4-.1-.1-.4v-1l.1-.4.4-.1h4.8l.3.1.2.3V12c0 1-.3 2-.8 2.9-.5.8-1.2 1.4-2 1.8-1 .5-2 .7-3.3.7zM43.6 17.2l-.4-.1-.1-.4v-13l.1-.4.4-.1h1.9l.3.1.2.4v13c0 .2 0 .3-.2.4l-.3.1h-2zM53.3 17.2l-.4-.1-.1-.4v-11H49l-.4-.1-.1-.4V3.7l.1-.4.4-.1h10.2l.4.1.1.4v1.5l-.1.4-.4.1h-3.7v11l-.1.4-.4.1h-1.8zM67.2 17.4a8 8 0 01-3-.5c-.9-.4-1.5-.9-2-1.5-.4-.5-.6-1.2-.7-1.9l.1-.3.3-.1h1.9l.3.1.3.3c.1.4.4.8.9 1.1.5.3 1.1.5 2 .5.9 0 1.6-.2 2-.5.5-.3.8-.7.8-1.3 0-.3-.2-.6-.4-.9a3 3 0 00-1-.6l-2.3-.7A8.5 8.5 0 0163 9.7c-.7-.7-1.1-1.5-1.1-2.7 0-.8.2-1.4.6-2 .5-.7 1-1.1 1.8-1.5a7 7 0 012.8-.5c1.1 0 2 .2 2.9.6.8.4 1.4.9 1.8 1.4.5.6.7 1.2.7 1.8l-.1.3H70c-.2 0-.4 0-.5-.3 0-.4-.3-.8-.8-1a3 3 0 00-1.7-.5c-.7 0-1.3.2-1.7.4-.4.3-.6.7-.6 1.3 0 .3 0 .6.3.9l1 .6 2 .6 2.8.9c.7.3 1.2.8 1.5 1.3.4.5.5 1.1.5 1.9 0 .9-.2 1.6-.7 2.3-.4.6-1.1 1-2 1.4-.8.3-1.8.5-3 .5zM79.2 17.2l-.3-.1-.2-.4v-11H75l-.3-.1-.1-.4V3.7v-.4l.4-.1h10.3l.3.1.2.4v1.5c0 .1 0 .3-.2.4l-.3.1h-3.7v11c0 .2 0 .3-.2.4l-.3.1h-1.9zM86 17.2a.4.4 0 01-.4-.4v-.2l4.9-12.9c.1-.3.4-.5.7-.5h2.2c.4 0 .6.2.7.5L99 16.6v.5l-.4.1h-1.7a.6.6 0 01-.6-.4l-1-2.4h-5.9l-.9 2.4c0 .3-.3.4-.6.4h-1.7zm4-5.1h4.6l-2.3-6.2-2.3 6.2zM101.9 17.2l-.3-.1-.2-.4v-13c0-.2 0-.3.2-.4l.3-.1h1.9l.3.1.2.4v11.1h6.3l.4.1.1.4v1.4l-.1.4-.4.1h-8.7zM114.1 17.2l-.3-.1-.2-.4v-13c0-.1 0-.3.2-.4l.3-.1h1.8l.4.1.1.4v4.7l4.5-4.8c.2-.3.4-.4.8-.4h2l.3.1.1.3V4l-5.5 6 5.8 6.6.1.3-.1.3-.3.1H122c-.3 0-.5 0-.6-.2l-.2-.2-4.8-5.2v5.1l-.1.4-.4.1h-1.8z"/></svg>