<svg width="25" height="24" viewBox="0 0 25 24" fill="none" xmlns="http://www.w3.org/2000/svg">
<path d="M12.2536 0C5.48723 0 0 5.50867 0 12.3041C0 17.7393 3.51109 22.3503 8.3825 23.9787C8.99525 24.092 9.21891 23.7121 9.21891 23.3858C9.21891 23.0932 9.20819 22.3196 9.20206 21.2933C5.79361 22.0362 5.07362 19.6434 5.07362 19.6434C4.51754 18.2218 3.7133 17.8434 3.7133 17.8434C2.59962 17.0806 3.79602 17.0959 3.79602 17.0959C5.02613 17.1832 5.67259 18.3643 5.67259 18.3643C6.76635 20.2439 8.54181 19.7016 9.24036 19.3861C9.35065 18.591 9.66775 18.0487 10.0186 17.7408C7.29792 17.4298 4.43635 16.3744 4.43635 11.6607C4.43635 10.3173 4.9143 9.21891 5.69863 8.35799C5.57148 8.04701 5.15174 6.79546 5.81812 5.10272C5.81812 5.10272 6.84754 4.77184 9.18827 6.36347C10.1656 6.09079 11.2134 5.95445 12.2566 5.94986C13.2968 5.95599 14.3461 6.09079 15.325 6.365C17.6642 4.77337 18.6921 5.10425 18.6921 5.10425C19.36 6.79852 18.9403 8.04855 18.8147 8.35952C19.6005 9.22044 20.0739 10.3188 20.0739 11.6623C20.0739 16.3882 17.2092 17.4283 14.4794 17.7331C14.9191 18.1131 15.3112 18.8637 15.3112 20.0111C15.3112 21.6563 15.2959 22.9829 15.2959 23.3858C15.2959 23.7152 15.5165 24.0981 16.1385 23.9771C21.0022 22.3472 24.5102 17.7377 24.5102 12.3041C24.5102 5.50867 19.023 0 12.2536 0Z" fill="#AAAAAA"/>
<path d="M1.88666 0H0V0.696391H1.88666V0Z" transform="translate(11.5159 10.0762)" fill="#AAAAAA"/>
<path d="M1.13474 0.517836H0.258918C0.11591 0.517836 0 0.401899 0 0.258918C0 0.11591 0.115938 0 0.258918 0H1.13471V0.517809H1.13474V0.517836Z" transform="translate(5.49988 10.0762)" fill="#AAAAAA"/>
<path d="M0.861711 0.517836H0V0H0.861711C1.00472 0 1.12063 0.115938 1.12063 0.258918C1.12063 0.401899 1.00469 0.517836 0.861711 0.517836Z" transform="translate(18.3798 10.0762)" fill="#AAAAAA"/>
<path d="M5.56063 1.16643L5.43009 2.43414C5.34174 3.29334 4.61823 3.94628 3.75444 3.94628H1.82465C0.961165 3.94628 0.237649 3.29334 0.149301 2.43414L0.00500844 1.03305C-0.0517845 0.480512 0.381669 1.03362e-09 0.937075 1.03362e-09H4.50811C5.13522 -2.73427e-05 5.62489 0.542473 5.56063 1.16643Z" transform="translate(6.19238 9.50087)" fill="#AAAAAA"/>
<path d="M5.56132 1.03305L5.41703 2.43414C5.32868 3.29334 4.60517 3.94628 3.74168 3.94628H1.81187C0.948078 3.94628 0.224589 3.29334 0.136214 2.43414L0.00567437 1.16643C-0.0585835 0.542472 0.431116 0 1.05822 0H4.62926C5.18469 0 5.61812 0.480512 5.56132 1.03305Z" transform="translate(13.2419 9.49988)" fill="#AAAAAA"/>
<path d="M0.0790569 -0.237171C-0.0519289 -0.280833 -0.193509 -0.210043 -0.237171 -0.0790569C-0.280833 0.0519289 -0.210043 0.193509 -0.0790569 0.237171L0.0790569 -0.237171ZM0.235089 0.078363L0.314146 -0.158808L0.235089 0.078363ZM2.76491 0.078363L2.68585 -0.158808L2.68585 -0.158808L2.76491 0.078363ZM3.07906 0.237171C3.21004 0.193509 3.28083 0.0519289 3.23717 -0.0790569C3.19351 -0.210043 3.05193 -0.280833 2.92094 -0.237171L3.07906 0.237171ZM-0.0790569 0.237171L0.156032 0.315534L0.314146 -0.158808L0.0790569 -0.237171L-0.0790569 0.237171ZM2.84397 0.315534L3.07906 0.237171L2.92094 -0.237171L2.68585 -0.158808L2.84397 0.315534ZM0.156032 0.315534C1.02842 0.606328 1.97158 0.606328 2.84397 0.315534L2.68585 -0.158808C1.9161 0.0977757 1.0839 0.0977757 0.314146 -0.158808L0.156032 0.315534Z" transform="translate(11 15)" fill="#AAAAAA"/>
</svg>
