<svg width="125" height="20" viewBox="0 0 125 20" fill="none" xmlns="http://www.w3.org/2000/svg">
<path d="M9.99875 0C4.4775 0 0 4.495 0 10.04C0 14.475 2.865 18.2375 6.84 19.5663C7.34 19.6588 7.5225 19.3488 7.5225 19.0825C7.5225 18.8438 7.51375 18.2125 7.50875 17.375C4.7275 17.9812 4.14 16.0288 4.14 16.0288C3.68625 14.8688 3.03 14.56 3.03 14.56C2.12125 13.9375 3.0975 13.95 3.0975 13.95C4.10125 14.0213 4.62875 14.985 4.62875 14.985C5.52125 16.5188 6.97 16.0763 7.54 15.8188C7.63 15.17 7.88875 14.7275 8.175 14.4762C5.955 14.2225 3.62 13.3613 3.62 9.515C3.62 8.41875 4.01 7.5225 4.65 6.82C4.54625 6.56625 4.20375 5.545 4.7475 4.16375C4.7475 4.16375 5.5875 3.89375 7.4975 5.1925C8.295 4.97 9.15 4.85875 10.0013 4.855C10.85 4.86 11.7062 4.97 12.505 5.19375C14.4137 3.895 15.2525 4.165 15.2525 4.165C15.7975 5.5475 15.455 6.5675 15.3525 6.82125C15.9937 7.52375 16.38 8.42 16.38 9.51625C16.38 13.3725 14.0425 14.2212 11.815 14.47C12.1737 14.78 12.4937 15.3925 12.4937 16.3288C12.4937 17.6713 12.4812 18.7538 12.4812 19.0825C12.4812 19.3513 12.6612 19.6637 13.1687 19.565C17.1375 18.235 20 14.4737 20 10.04C20 4.495 15.5225 0 9.99875 0Z" fill="#333333"/>
<path d="M1.53949 0H0V0.568245H1.53949V0Z" transform="translate(9.39661 8.22198)" fill="#333333"/>
<path d="M0.925931 0.422547H0.211273C0.0945811 0.422547 0 0.327944 0 0.211274C0 0.0945813 0.0946034 0 0.211273 0H0.925908V0.422525H0.925931V0.422547Z" transform="translate(4.48792 8.22198)" fill="#333333"/>
<path d="M0.703144 0.422547H0V0H0.703144C0.819837 0 0.914418 0.0946036 0.914418 0.211274C0.914418 0.327944 0.819814 0.422547 0.703144 0.422547Z" transform="translate(14.9974 8.22198)" fill="#333333"/>
<path d="M4.5374 0.95179L4.43088 1.98622C4.35879 2.68732 3.76841 3.22011 3.06357 3.22011H1.48889C0.784297 3.22011 0.193918 2.68732 0.121828 1.98622L0.00408681 0.842952C-0.0422554 0.392091 0.311436 8.43416e-10 0.76464 8.43416e-10H3.67856C4.19026 -2.23113e-05 4.58983 0.44265 4.5374 0.95179Z" transform="translate(5.05273 7.75281)" fill="#333333"/>
<path d="M4.53796 0.842952L4.42022 1.98622C4.34813 2.68732 3.75775 3.22011 3.05316 3.22011H1.47846C0.773618 3.22011 0.183261 2.68732 0.111149 1.98622L0.00463021 0.95179C-0.0478033 0.44265 0.351785 0 0.863491 0H3.77741C4.23063 0 4.5843 0.392091 4.53796 0.842952Z" transform="translate(10.8052 7.75183)" fill="#333333"/>
<path d="M0.0790569 -0.237171C-0.0519289 -0.280833 -0.193509 -0.210043 -0.237171 -0.0790569C-0.280833 0.0519289 -0.210043 0.193509 -0.0790569 0.237171L0.0790569 -0.237171ZM0.191829 0.0639431L0.270886 -0.173228L0.191829 0.0639431ZM2.25613 0.0639431L2.17707 -0.173228L2.17707 -0.173228L2.25613 0.0639431ZM2.52701 0.237171C2.658 0.193509 2.72879 0.0519289 2.68513 -0.0790569C2.64147 -0.210043 2.49989 -0.280833 2.3689 -0.237171L2.52701 0.237171ZM-0.0790569 0.237171L0.112772 0.301114L0.270886 -0.173228L0.0790569 -0.237171L-0.0790569 0.237171ZM2.33519 0.301114L2.52701 0.237171L2.3689 -0.237171L2.17707 -0.173228L2.33519 0.301114ZM0.112772 0.301114C0.834068 0.541546 1.61389 0.541546 2.33519 0.301114L2.17707 -0.173228C1.55841 0.0329932 0.889549 0.0329932 0.270886 -0.173228L0.112772 0.301114Z" transform="translate(8.97571 12.2398)" fill="#333333"/>
<path d="M5.94 14.4C4.1 14.4 2.66667 13.9267 1.64 12.98C0.626667 12.0333 0.0866666 10.7133 0.02 9.02C0.00666666 8.63333 0 8.01333 0 7.16C0 6.30667 0.00666666 5.68667 0.02 5.3C0.0733333 3.64667 0.62 2.35333 1.66 1.42C2.7 0.473333 4.12667 0 5.94 0C7.16667 0 8.22 0.213333 9.1 0.64C9.99333 1.05333 10.6667 1.57333 11.12 2.2C11.5733 2.81333 11.8133 3.42 11.84 4.02C11.84 4.14 11.8 4.24 11.72 4.32C11.64 4.4 11.5333 4.44 11.4 4.44H9.3C9.16667 4.44 9.06667 4.41333 9 4.36C8.93333 4.30667 8.87333 4.22 8.82 4.1C8.63333 3.60667 8.30667 3.18667 7.84 2.84C7.37333 2.49333 6.74 2.32 5.94 2.32C5.00667 2.32 4.27333 2.57333 3.74 3.08C3.22 3.57333 2.94667 4.34667 2.92 5.4C2.90667 5.78667 2.9 6.37333 2.9 7.16C2.9 7.93333 2.90667 8.52 2.92 8.92C2.94667 10 3.22667 10.8 3.76 11.32C4.29333 11.8267 5.02667 12.08 5.96 12.08C6.90667 12.08 7.66667 11.8267 8.24 11.32C8.81333 10.8133 9.1 10.0533 9.1 9.04V8.42H6.66C6.52667 8.42 6.41333 8.37333 6.32 8.28C6.22667 8.18667 6.18 8.07333 6.18 7.94V6.84C6.18 6.70667 6.22667 6.59333 6.32 6.5C6.41333 6.40667 6.52667 6.36 6.66 6.36H11.46C11.6067 6.36 11.7267 6.40667 11.82 6.5C11.9133 6.59333 11.96 6.70667 11.96 6.84V8.96C11.96 10.0667 11.7133 11.0333 11.22 11.86C10.7267 12.6733 10.0267 13.3 9.12 13.74C8.21333 14.18 7.15333 14.4 5.94 14.4Z" transform="translate(28 3)" fill="#333333"/>
<path d="M15.5834 14.2C15.4501 14.2 15.3368 14.1533 15.2434 14.06C15.1501 13.9667 15.1034 13.8533 15.1034 13.72V0.68C15.1034 0.533333 15.1501 0.42 15.2434 0.339999C15.3368 0.246666 15.4501 0.2 15.5834 0.2H17.5034C17.6501 0.2 17.7634 0.246666 17.8434 0.339999C17.9368 0.42 17.9834 0.533333 17.9834 0.68V13.72C17.9834 13.8533 17.9368 13.9667 17.8434 14.06C17.7634 14.1533 17.6501 14.2 17.5034 14.2H15.5834Z" transform="translate(28 3)" fill="#333333"/>
<path d="M25.2595 14.2C25.1262 14.2 25.0129 14.1533 24.9195 14.06C24.8262 13.9667 24.7795 13.8533 24.7795 13.72V2.7H21.0795C20.9462 2.7 20.8329 2.65333 20.7395 2.56C20.6462 2.46667 20.5995 2.34667 20.5995 2.2V0.699999C20.5995 0.553333 20.6395 0.433333 20.7195 0.339999C20.8129 0.246666 20.9329 0.2 21.0795 0.2H31.2995C31.4462 0.2 31.5662 0.246666 31.6595 0.339999C31.7529 0.433333 31.7995 0.553333 31.7995 0.699999V2.2C31.7995 2.34667 31.7529 2.46667 31.6595 2.56C31.5662 2.65333 31.4462 2.7 31.2995 2.7H27.6195V13.72C27.6195 13.8533 27.5729 13.9667 27.4795 14.06C27.3995 14.1533 27.2862 14.2 27.1395 14.2H25.2595Z" transform="translate(28 3)" fill="#333333"/>
<path d="M39.2498 14.4C38.0498 14.4 37.0232 14.22 36.1698 13.86C35.3165 13.5 34.6698 13.0267 34.2298 12.44C33.7898 11.8533 33.5565 11.2133 33.5298 10.52C33.5298 10.4133 33.5698 10.32 33.6498 10.24C33.7298 10.1467 33.8298 10.1 33.9498 10.1H35.7698C35.9165 10.1 36.0365 10.1333 36.1298 10.2C36.2232 10.2667 36.3098 10.36 36.3898 10.48C36.5232 10.9333 36.8232 11.3133 37.2898 11.62C37.7698 11.9267 38.4232 12.08 39.2498 12.08C40.1832 12.08 40.8832 11.9267 41.3498 11.62C41.8298 11.3 42.0698 10.8667 42.0698 10.32C42.0698 9.96 41.9498 9.66 41.7098 9.42C41.4698 9.18 41.1032 8.97333 40.6098 8.8C40.1298 8.61333 39.4098 8.39333 38.4498 8.14C36.8765 7.76667 35.7232 7.27333 34.9898 6.66C34.2565 6.04667 33.8898 5.16667 33.8898 4.02C33.8898 3.24667 34.1032 2.56 34.5298 1.96C34.9565 1.34667 35.5632 0.866666 36.3498 0.519999C37.1498 0.173333 38.0765 0 39.1298 0C40.2365 0 41.1898 0.193333 41.9898 0.58C42.8032 0.966666 43.4165 1.45333 43.8298 2.04C44.2565 2.61333 44.4832 3.18667 44.5098 3.76C44.5098 3.86667 44.4698 3.96667 44.3898 4.06C44.3098 4.14 44.2098 4.18 44.0898 4.18H42.1898C41.8965 4.18 41.6965 4.06 41.5898 3.82C41.5232 3.39333 41.2632 3.04 40.8098 2.76C40.3565 2.46667 39.7965 2.32 39.1298 2.32C38.3965 2.32 37.8165 2.46 37.3898 2.74C36.9765 3.02 36.7698 3.42667 36.7698 3.96C36.7698 4.32 36.8765 4.62 37.0898 4.86C37.3032 5.1 37.6365 5.31333 38.0898 5.5C38.5432 5.67333 39.2032 5.87333 40.0698 6.1C41.2565 6.36667 42.1965 6.66667 42.8898 7C43.5965 7.33333 44.1165 7.75333 44.4498 8.26C44.7832 8.76667 44.9498 9.41333 44.9498 10.2C44.9498 11.0667 44.7098 11.82 44.2298 12.46C43.7632 13.0867 43.0965 13.5667 42.2298 13.9C41.3765 14.2333 40.3832 14.4 39.2498 14.4Z" transform="translate(28 3)" fill="#333333"/>
<path d="M51.2252 14.2C51.0918 14.2 50.9785 14.1533 50.8852 14.06C50.7918 13.9667 50.7452 13.8533 50.7452 13.72V2.7H47.0452C46.9118 2.7 46.7985 2.65333 46.7052 2.56C46.6118 2.46667 46.5652 2.34667 46.5652 2.2V0.699999C46.5652 0.553333 46.6052 0.433333 46.6852 0.339999C46.7785 0.246666 46.8985 0.2 47.0452 0.2H57.2652C57.4118 0.2 57.5318 0.246666 57.6252 0.339999C57.7185 0.433333 57.7652 0.553333 57.7652 0.699999V2.2C57.7652 2.34667 57.7185 2.46667 57.6252 2.56C57.5318 2.65333 57.4118 2.7 57.2652 2.7H53.5852V13.72C53.5852 13.8533 53.5385 13.9667 53.4452 14.06C53.3652 14.1533 53.2518 14.2 53.1052 14.2H51.2252Z" transform="translate(28 3)" fill="#333333"/>
<path d="M58.0692 14.2C57.9492 14.2 57.8492 14.16 57.7692 14.08C57.6892 14 57.6492 13.9 57.6492 13.78L57.6892 13.6L62.4892 0.699999C62.6226 0.366666 62.8626 0.2 63.2092 0.2H65.4092C65.7559 0.2 65.9959 0.366666 66.1292 0.699999L70.9292 13.6L70.9692 13.78C70.9692 13.9 70.9225 14 70.8292 14.08C70.7492 14.16 70.6559 14.2 70.5492 14.2H68.7692C68.4892 14.2 68.2959 14.0733 68.1892 13.82L67.2692 11.4H61.3492L60.4292 13.82C60.3226 14.0733 60.1292 14.2 59.8492 14.2H58.0692ZM62.0492 9.08H66.5692L64.3092 2.92L62.0492 9.08Z" transform="translate(28 3)" fill="#333333"/>
<path d="M73.8959 14.2C73.7626 14.2 73.6493 14.1533 73.5559 14.06C73.4626 13.9667 73.4159 13.8533 73.4159 13.72V0.68C73.4159 0.533333 73.4626 0.42 73.5559 0.339999C73.6493 0.246666 73.7626 0.2 73.8959 0.2H75.7759C75.9226 0.2 76.0359 0.246666 76.1159 0.339999C76.2093 0.42 76.2559 0.533333 76.2559 0.68V11.8H82.5959C82.7426 11.8 82.8626 11.8467 82.9559 11.94C83.0493 12.0333 83.0959 12.1467 83.0959 12.28V13.72C83.0959 13.8533 83.0493 13.9667 82.9559 14.06C82.8626 14.1533 82.7426 14.2 82.5959 14.2H73.8959Z" transform="translate(28 3)" fill="#333333"/>
<path d="M86.117 14.2C85.9837 14.2 85.8704 14.1533 85.777 14.06C85.6837 13.9667 85.637 13.8533 85.637 13.72V0.699999C85.637 0.553333 85.677 0.433333 85.757 0.339999C85.8504 0.246666 85.9704 0.2 86.117 0.2H87.917C88.0637 0.2 88.1837 0.246666 88.277 0.339999C88.3704 0.433333 88.417 0.553333 88.417 0.699999V5.38L92.877 0.56C93.077 0.32 93.337 0.2 93.657 0.2H95.697C95.8037 0.2 95.897 0.24 95.977 0.319999C96.0704 0.399999 96.117 0.499999 96.117 0.619999C96.117 0.713333 96.0837 0.793333 96.017 0.86L90.577 6.9L96.417 13.52C96.4704 13.6133 96.497 13.7 96.497 13.78C96.497 13.9 96.457 14 96.377 14.08C96.297 14.16 96.2037 14.2 96.097 14.2H93.997C93.717 14.2 93.517 14.1467 93.397 14.04C93.277 13.92 93.2104 13.8533 93.197 13.84L88.417 8.56V13.72C88.417 13.8533 88.3704 13.9667 88.277 14.06C88.1837 14.1533 88.0637 14.2 87.917 14.2H86.117Z" transform="translate(28 3)" fill="#333333"/>
</svg>
