<svg width="16" height="16" viewBox="0 0 16 16" fill="none" xmlns="http://www.w3.org/2000/svg">
<path d="M15.9859 5.80235C15.9521 5.69867 15.8625 5.62307 15.7545 5.60731L10.5736 4.85438L8.25669 0.159808C8.20857 0.0618612 8.10891 0 8.00008 0C7.89125 0 7.7913 0.0618612 7.74347 0.159808L5.42625 4.85467L0.245377 5.6076C0.137407 5.62335 0.0480517 5.69867 0.0139707 5.80264C-0.0195374 5.90602 0.00824284 6.02001 0.0864285 6.0959L3.83562 9.7503L2.95037 14.9105C2.93204 15.0179 2.97615 15.1265 3.06407 15.1906C3.15257 15.2554 3.2697 15.2637 3.36564 15.2124L8.00008 12.7763L12.6339 15.2124C12.6758 15.2345 12.7219 15.2453 12.7674 15.2453C12.8267 15.2453 12.8857 15.227 12.9358 15.1906C13.024 15.1265 13.0681 15.0179 13.0495 14.9105L12.1645 9.75058L15.9137 6.0959C15.9916 6.01944 16.0197 5.90574 15.9859 5.80235Z" fill="#FFA80D"/>
</svg>
